<?xml version="1.0" encoding="UTF-8"?>
<svg width="40px" height="40px" viewBox="0 0 40 40" version="1.1" xmlns="http://www.w3.org/2000/svg" xmlns:xlink="http://www.w3.org/1999/xlink">
    <title>ic_flight_40x40</title>
    <defs>
        <path d="M4.30958768,16.3425415 C5.39100192,14.6712748 7.41010815,12.1739885 8.81858872,10.7655079 L15.8417488,3.74234777 C16.5463951,3.03770152 17.5766341,2.00746253 18.5210784,1.44050439 C18.5210784,1.44050439 22.4788658,-1.19363859 24.3347079,0.662203541 C26.19055,2.51804567 23.5561679,6.4755939 23.5561679,6.4755939 C22.9170419,7.49268434 21.9583679,8.45135833 21.2545637,9.15516258 L14.2314035,16.1783227 C12.8225621,17.5871641 10.3227739,19.6077679 8.65436993,20.6873237 L2.55105607,24.7789504 C1.99417967,25.1392814 1.16724723,25.0558953 0.606963736,24.4956118 L0.501299576,24.3899477 C-0.0618259094,23.8268222 -0.141908515,23.0014191 0.217724915,22.4456132 L4.30958768,16.3425415 Z" id="path-1"></path>
    </defs>
    <g id="Symbol" stroke="none" stroke-width="1" fill="none" fill-rule="evenodd">
        <g id="Verticals-Icon/2.-Flight/40x40">
            <rect id="empty_space" fill-opacity="0" fill="#FFFFFF" x="0" y="0" width="40" height="40"></rect>
            <g id="ðŸ”£-ì•„ì´ì½˜" transform="translate(5.000000, 5.000000)">
                <g id="Group" transform="translate(0.416667, 0.250000)">
                    <path d="M26.1056432,26.9422891 L27.9225262,25.1441217 C28.0836056,24.9847017 28.1398507,24.7488899 28.0678122,24.5350064 L22.6423859,10.8572299 C22.5010092,10.4374568 21.9626928,10.311685 21.6465543,10.6245669 L16.8351634,15.3863958 C16.6206896,15.5986603 16.5994834,15.935768 16.7857023,16.1727226 L25.2056364,26.8868376 C25.4277302,27.1694402 25.8498396,27.1954517 26.1056432,26.9422891 Z" id="Path" fill="#51ABF3" fill-rule="nonzero"></path>
                    <path d="M11.0767999,21.5317969 L12.1703926,26.3365084 C12.3135173,26.9653284 12.1188528,27.6233002 11.6566344,28.0730261 L10.4140216,29.2820549 L7.48376346,24.2626423 L11.0767999,21.5317969 Z M1.20902872,17.6254204 C1.65875468,17.1632021 2.31672649,16.9685376 2.94554647,17.1116623 L2.94554647,17.1116623 L7.75025799,18.2052549 L5.01941258,21.7982914 L0,18.8680333 Z" id="Combined-Shape" fill="#51ABF3"></path>
                    <path d="M2.31508244,4.16974764 L13.0291946,12.5896818 C13.2661491,12.7759007 13.6032567,12.7546945 13.8155212,12.5402207 L18.5773488,7.72882975 C18.8902306,7.41269129 18.7644589,6.87437483 18.3446859,6.73299812 L4.66691297,1.30757187 C4.45302953,1.23553332 4.21721788,1.29177848 4.05779784,1.45285783 L2.25963095,3.26974087 C2.00646244,3.52554449 2.03247392,3.94765383 2.31508244,4.16974764 Z" id="Path" fill="#51ABF3" fill-rule="nonzero"></path>
                    <g id="Mask" transform="translate(3.842362, 0.000000)">
                        <g id="Group" transform="translate(0.392013, 0.046835)">
                            <mask id="mask-2" fill="white">
                                <use xlink:href="#path-1"></use>
                            </mask>
                            <use id="Mask" fill="#A7D4F9" xlink:href="#path-1"></use>
                            <path d="M24.3347079,0.662018663 C26.19055,2.51804567 23.5561679,6.4755939 23.5561679,6.4755939 C22.9170419,7.49268434 21.9583679,8.45135833 21.2545637,9.15516258 L14.2314035,16.1783227 C12.8225621,17.5871641 10.3227739,19.6077679 8.65436993,20.6873237 L2.55105607,24.7789504 C1.99417967,25.1392814 1.16724723,25.0558953 0.606963736,24.4956118 L0.501299576,24.3899477 C0.501299576,24.3899477 24.3347079,0.649576749 24.3347079,0.662018663 Z" id="Mask" fill="#79BEF5" mask="url(#mask-2)"></path>
                        </g>
                    </g>
                    <path d="M26.270183,6.12703828 C26.2613722,6.12703828 26.2525613,6.12674358 26.2443398,6.12644889 C25.9119148,6.11235151 25.6546618,5.83190155 25.6687592,5.50006593 C25.6899052,4.99643358 25.4978465,4.50307957 25.1419239,4.14656753 C24.7854179,3.79035018 24.2996959,3.59506785 23.7881308,3.61973225 C23.4809596,3.63059998 23.1761339,3.37628188 23.1620365,3.04444626 C23.1479391,2.71261064 23.4051922,2.43215466 23.7376172,2.4180633 C24.575148,2.38282588 25.3991709,2.70203761 25.9923673,3.29611809 C26.5861531,3.89019857 26.9062489,4.71216458 26.8704221,5.5511629 C26.8569201,5.87419367 26.5902728,6.12703828 26.270183,6.12703828 Z" id="Path" fill="#51ABF3" fill-rule="nonzero"></path>
                </g>
            </g>
        </g>
    </g>
</svg>